<svg width="30" height="34" viewBox="0 0 30 34" fill="none" xmlns="http://www.w3.org/2000/svg">
<g id="trash-solid 1" clip-path="url(#clip0_17_269)">
<path id="Vector" d="M9.05357 1.17539L8.57143 2.125H2.14286C0.957589 2.125 0 3.07461 0 4.25C0 5.42539 0.957589 6.375 2.14286 6.375H27.8571C29.0424 6.375 30 5.42539 30 4.25C30 3.07461 29.0424 2.125 27.8571 2.125H21.4286L20.9464 1.17539C20.5848 0.451563 19.8415 0 19.0313 0H10.9687C10.1585 0 9.41518 0.451563 9.05357 1.17539ZM27.8571 8.5H2.14286L3.5625 31.0117C3.66964 32.6918 5.07589 34 6.77009 34H23.2299C24.9241 34 26.3304 32.6918 26.4375 31.0117L27.8571 8.5Z" fill="#8000A4"/>
</g>
<defs>
<clipPath id="clip0_17_269">
<rect width="30" height="34" fill="white"/>
</clipPath>
</defs>
</svg>
